<svg xmlns="http://www.w3.org/2000/svg" width="41" height="30" viewBox="0 0 41 30">
  <metadata><?xpacket begin="﻿" id="W5M0MpCehiHzreSzNTczkc9d"?>
<x:xmpmeta xmlns:x="adobe:ns:meta/" x:xmptk="Adobe XMP Core 5.6-c140 79.160451, 2017/05/06-01:08:21        ">
   <rdf:RDF xmlns:rdf="http://www.w3.org/1999/02/22-rdf-syntax-ns#">
      <rdf:Description rdf:about=""/>
   </rdf:RDF>
</x:xmpmeta>
                                                                                                    
                                                                                                    
                                                                                                    
                                                                                                    
                                                                                                    
                                                                                                    
                                                                                                    
                                                                                                    
                                                                                                    
                                                                                                    
                                                                                                    
                                                                                                    
                                                                                                    
                                                                                                    
                                                                                                    
                                                                                                    
                                                                                                    
                                                                                                    
                                                                                                    
                                                                                                    
                           
<?xpacket end="w"?></metadata>
<defs>
    <style>
      .cls-1 {
        fill-rule: evenodd;
      }
    </style>
  </defs>
  <path id="Camera" class="cls-1" d="M490.5,686.971a9.5,9.5,0,1,0,9.5,9.5A9.5,9.5,0,0,0,490.5,686.971Zm0,17a7.5,7.5,0,1,1,7.5-7.5A7.509,7.509,0,0,1,490.5,703.971Zm16.5-19-7.5.031-3.155-4.61a1.009,1.009,0,0,0-.795-0.39h-10.09a1.009,1.009,0,0,0-.795.39L481.505,685H474a3.952,3.952,0,0,0-4,3.937V706a4.005,4.005,0,0,0,4,4h33a4.005,4.005,0,0,0,4-4V688.5C511,686.3,509.205,684.969,507,684.969ZM509,706a2,2,0,0,1-2,2H474a2,2,0,0,1-2-2V688.937a1.972,1.972,0,0,1,2-1.968L482,687a1.009,1.009,0,0,0,.8-0.39L485.95,682h9.1l3.155,4.61a1.009,1.009,0,0,0,.8.39l8-.031c1.105,0,2,.426,2,1.531V706Z" transform="translate(-470 -680)"/>
</svg>
