<svg xmlns="http://www.w3.org/2000/svg" width="41" height="29.998" viewBox="0 0 41 29.998">
  <path id="Camera" d="M490.5,686.971a9.5,9.5,0,1,0,9.5,9.5A9.5,9.5,0,0,0,490.5,686.971Zm0,17a7.5,7.5,0,1,1,7.5-7.5,7.5,7.5,0,0,1-7.5,7.5Zm16.5-19-7.5.031-3.155-4.61a1.009,1.009,0,0,0-.795-.39H485.46a1.009,1.009,0,0,0-.8.39L481.505,685H474a3.952,3.952,0,0,0-4,3.937V706a4,4,0,0,0,4,4h33a4.005,4.005,0,0,0,4-4V688.5c0-2.2-1.8-3.531-4-3.531ZM509,706a2,2,0,0,1-2,2H474a2,2,0,0,1-2-2V688.937a1.972,1.972,0,0,1,2-1.968l8,.031a1.009,1.009,0,0,0,.8-.39l3.15-4.61h9.1l3.155,4.61a1.009,1.009,0,0,0,.8.39l8-.031c1.105,0,2,.426,2,1.531V706Z" transform="translate(-470 -680.002)" fill-rule="evenodd"/>
</svg>
