<svg xmlns="http://www.w3.org/2000/svg" width="40.945" height="36.005" viewBox="0 0 40.945 36.005">
  <path id="Heart" d="M899.8,417.71l-16.415-16.3a11.327,11.327,0,0,1,0-16.084c5.253-5.216,11.664-3.078,13.943-1.726a11.518,11.518,0,0,1,3.179,2.788,11.483,11.483,0,0,1,3.181-2.79c2.275-1.349,8.687-3.488,13.941,1.729a11.325,11.325,0,0,1,0,16.083l-16.415,16.3a1,1,0,0,1-1.414,0Zm-15.012-30.964a9.325,9.325,0,0,0,0,13.243l15.712,15.6,15.713-15.6a9.327,9.327,0,0,0,0-13.244,9.486,9.486,0,0,0-14.853,1.918,1,1,0,0,1-.863.5h0a1,1,0,0,1-.862-.5,9.485,9.485,0,0,0-14.847-1.917Z" transform="translate(-880.035 -381.998)" fill-rule="evenodd"/>
</svg>
