<svg xmlns="http://www.w3.org/2000/svg" width="41" height="36" viewBox="0 0 41 36">
  <metadata><?xpacket begin="﻿" id="W5M0MpCehiHzreSzNTczkc9d"?>
<x:xmpmeta xmlns:x="adobe:ns:meta/" x:xmptk="Adobe XMP Core 5.6-c140 79.160451, 2017/05/06-01:08:21        ">
   <rdf:RDF xmlns:rdf="http://www.w3.org/1999/02/22-rdf-syntax-ns#">
      <rdf:Description rdf:about=""/>
   </rdf:RDF>
</x:xmpmeta>
                                                                                                    
                                                                                                    
                                                                                                    
                                                                                                    
                                                                                                    
                                                                                                    
                                                                                                    
                                                                                                    
                                                                                                    
                                                                                                    
                                                                                                    
                                                                                                    
                                                                                                    
                                                                                                    
                                                                                                    
                                                                                                    
                                                                                                    
                                                                                                    
                                                                                                    
                                                                                                    
                           
<?xpacket end="w"?></metadata>
<defs>
    <style>
      .cls-1 {
        fill-rule: evenodd;
      }
    </style>
  </defs>
  <path id="Heart" class="cls-1" d="M899.8,417.71l-16.415-16.3a11.327,11.327,0,0,1,0-16.084c5.253-5.216,11.664-3.078,13.943-1.726a11.518,11.518,0,0,1,3.179,2.788,11.482,11.482,0,0,1,3.181-2.79c2.275-1.349,8.687-3.488,13.941,1.729a11.325,11.325,0,0,1,0,16.083l-16.415,16.3A1,1,0,0,1,899.8,417.71Zm-15.012-30.964a9.325,9.325,0,0,0,0,13.243l15.712,15.6,15.713-15.6a9.327,9.327,0,0,0,0-13.244,9.486,9.486,0,0,0-14.853,1.918,1,1,0,0,1-.863.5h0a1,1,0,0,1-.862-0.5A9.485,9.485,0,0,0,884.788,386.746Z" transform="translate(-880 -382)"/>
</svg>
