<svg xmlns="http://www.w3.org/2000/svg" width="38" height="38" viewBox="0 0 38 38">
  <metadata><?xpacket begin="﻿" id="W5M0MpCehiHzreSzNTczkc9d"?>
<x:xmpmeta xmlns:x="adobe:ns:meta/" x:xmptk="Adobe XMP Core 5.6-c140 79.160451, 2017/05/06-01:08:21        ">
   <rdf:RDF xmlns:rdf="http://www.w3.org/1999/02/22-rdf-syntax-ns#">
      <rdf:Description rdf:about=""/>
   </rdf:RDF>
</x:xmpmeta>
                                                                                                    
                                                                                                    
                                                                                                    
                                                                                                    
                                                                                                    
                                                                                                    
                                                                                                    
                                                                                                    
                                                                                                    
                                                                                                    
                                                                                                    
                                                                                                    
                                                                                                    
                                                                                                    
                                                                                                    
                                                                                                    
                                                                                                    
                                                                                                    
                                                                                                    
                                                                                                    
                           
<?xpacket end="w"?></metadata>
<defs>
    <style>
      .cls-1 {
        fill-rule: evenodd;
      }
    </style>
  </defs>
  <path id="Link" class="cls-1" d="M370.2,544.3l-6.049,6.046a1,1,0,0,1-1.414-1.414l6.049-6.046a7.553,7.553,0,0,0-10.683-10.679l-6.049,6.046a7.555,7.555,0,0,0,2.5,12.338,1,1,0,1,1-.751,1.853,9.554,9.554,0,0,1-3.162-15.6l6.049-6.046A9.552,9.552,0,0,1,370.2,544.3Zm-16.017-2.754a1,1,0,1,0-.751,1.853,7.555,7.555,0,0,1,2.5,12.338l-6.049,6.046A7.553,7.553,0,0,1,339.2,551.109l6.049-6.046a1,1,0,0,0-1.414-1.414l-6.049,6.046A9.552,9.552,0,0,0,351.3,563.2l6.049-6.046A9.554,9.554,0,0,0,354.186,541.551Z" transform="translate(-335 -528)"/>
</svg>
