<svg xmlns="http://www.w3.org/2000/svg" width="38.007" height="38.003" viewBox="0 0 38.007 38.003">
  <path id="Link" d="M370.2,544.3l-6.049,6.046a1,1,0,1,1-1.414-1.414l6.049-6.046A7.553,7.553,0,1,0,358.1,532.207l-6.049,6.046a7.555,7.555,0,0,0,2.5,12.338,1,1,0,1,1-.751,1.853,9.554,9.554,0,0,1-3.162-15.6l6.049-6.046A9.551,9.551,0,1,1,370.2,544.3Zm-16.017-2.754a1,1,0,1,0-.751,1.853,7.555,7.555,0,0,1,2.5,12.338l-6.049,6.046A7.553,7.553,0,0,1,339.2,551.109l6.049-6.046a1,1,0,1,0-1.414-1.414l-6.049,6.046A9.553,9.553,0,0,0,351.3,563.2l6.049-6.046a9.554,9.554,0,0,0-3.163-15.6Z" transform="translate(-334.99 -527.997)" fill-rule="evenodd"/>
</svg>
