<svg xmlns="http://www.w3.org/2000/svg" width="38" height="32.969" viewBox="0 0 38 32.969">
  <metadata><?xpacket begin="﻿" id="W5M0MpCehiHzreSzNTczkc9d"?>
<x:xmpmeta xmlns:x="adobe:ns:meta/" x:xmptk="Adobe XMP Core 5.6-c140 79.160451, 2017/05/06-01:08:21        ">
   <rdf:RDF xmlns:rdf="http://www.w3.org/1999/02/22-rdf-syntax-ns#">
      <rdf:Description rdf:about=""/>
   </rdf:RDF>
</x:xmpmeta>
                                                                                                    
                                                                                                    
                                                                                                    
                                                                                                    
                                                                                                    
                                                                                                    
                                                                                                    
                                                                                                    
                                                                                                    
                                                                                                    
                                                                                                    
                                                                                                    
                                                                                                    
                                                                                                    
                                                                                                    
                                                                                                    
                                                                                                    
                                                                                                    
                                                                                                    
                                                                                                    
                           
<?xpacket end="w"?></metadata>
<defs>
    <style>
      .cls-1 {
        fill-rule: evenodd;
      }
    </style>
  </defs>
  <path id="Message" class="cls-1" d="M508,531H472a1,1,0,0,0-1,1v24a1,1,0,0,0,1,1h8v6c0,1.32,1.392,1.023,1.7.71L488.5,557H508a1,1,0,0,0,1-1V532A1,1,0,0,0,508,531Zm-1,24H488.085a1.008,1.008,0,0,0-.7.29L482,560.605V556a1,1,0,0,0-1-1h-8V533h34v22Z" transform="translate(-471 -531)"/>
</svg>
