<svg xmlns="http://www.w3.org/2000/svg" width="34.995" height="34.983" viewBox="0 0 34.995 34.983">
  <path id="Notification" d="M1046.9,827.757l.52-1.43a.973.973,0,0,0-.59-1.26,1,1,0,0,0-1.28.59l-.53,1.425a13.017,13.017,0,0,0-15.66,7.948l-3.27,8.873-6.02,2.769a.978.978,0,0,0,.08,1.815l10.87,3.9a5.406,5.406,0,0,0,3.52,5.983,5.529,5.529,0,0,0,6.61-2.344l10.86,3.9h.01c1.14.315,1.75-.617,1.19-1.445l-2.76-5.838,3.27-8.873A12.754,12.754,0,0,0,1046.9,827.757Zm-11.67,28.768a3.436,3.436,0,0,1-2.29-3.44l6.28,2.255a3.5,3.5,0,0,1-3.99,1.185Zm16.62-13.412-3.41,9.253a.973.973,0,0,0,.03.749l1.96,4.159-9.45-3.4-8.43-3.029-9.45-3.394,4.21-1.94a1.01,1.01,0,0,0,.51-.555l3.41-9.252a11.021,11.021,0,0,1,14.06-6.474,10.8,10.8,0,0,1,6.56,13.883Z" transform="translate(-1019.494 -825.006)" fill-rule="evenodd"/>
</svg>
