<svg xmlns="http://www.w3.org/2000/svg" width="35" height="35" viewBox="0 0 35 35">
  <metadata><?xpacket begin="﻿" id="W5M0MpCehiHzreSzNTczkc9d"?>
<x:xmpmeta xmlns:x="adobe:ns:meta/" x:xmptk="Adobe XMP Core 5.6-c140 79.160451, 2017/05/06-01:08:21        ">
   <rdf:RDF xmlns:rdf="http://www.w3.org/1999/02/22-rdf-syntax-ns#">
      <rdf:Description rdf:about=""/>
   </rdf:RDF>
</x:xmpmeta>
                                                                                                    
                                                                                                    
                                                                                                    
                                                                                                    
                                                                                                    
                                                                                                    
                                                                                                    
                                                                                                    
                                                                                                    
                                                                                                    
                                                                                                    
                                                                                                    
                                                                                                    
                                                                                                    
                                                                                                    
                                                                                                    
                                                                                                    
                                                                                                    
                                                                                                    
                                                                                                    
                           
<?xpacket end="w"?></metadata>
<defs>
    <style>
      .cls-1 {
        fill-rule: evenodd;
      }
    </style>
  </defs>
  <path id="Notification" class="cls-1" d="M1046.9,827.757l0.52-1.43a0.973,0.973,0,0,0-.59-1.26,1,1,0,0,0-1.28.59l-0.53,1.425a13.017,13.017,0,0,0-15.66,7.948l-3.27,8.873-6.02,2.769a0.978,0.978,0,0,0,.08,1.815l10.87,3.9a5.406,5.406,0,0,0,3.52,5.983,5.529,5.529,0,0,0,6.61-2.344l10.86,3.9s0.01,0,.01,0c1.14,0.315,1.75-.617,1.19-1.445l-2.76-5.838,3.27-8.873A12.754,12.754,0,0,0,1046.9,827.757Zm-11.67,28.768a3.436,3.436,0,0,1-2.29-3.44l6.28,2.255A3.5,3.5,0,0,1,1035.23,856.525Zm16.62-13.412-3.41,9.253a0.973,0.973,0,0,0,.03.749l1.96,4.159-9.45-3.4-8.43-3.029-9.45-3.394,4.21-1.94a1.01,1.01,0,0,0,.51-0.555l3.41-9.252a11.021,11.021,0,0,1,14.06-6.474A10.8,10.8,0,0,1,1051.85,843.113Z" transform="translate(-1019.5 -825)"/>
</svg>
