<svg xmlns="http://www.w3.org/2000/svg" width="38" height="38" viewBox="0 0 38 38">
  <metadata><?xpacket begin="﻿" id="W5M0MpCehiHzreSzNTczkc9d"?>
<x:xmpmeta xmlns:x="adobe:ns:meta/" x:xmptk="Adobe XMP Core 5.6-c140 79.160451, 2017/05/06-01:08:21        ">
   <rdf:RDF xmlns:rdf="http://www.w3.org/1999/02/22-rdf-syntax-ns#">
      <rdf:Description rdf:about=""/>
   </rdf:RDF>
</x:xmpmeta>
                                                                                                    
                                                                                                    
                                                                                                    
                                                                                                    
                                                                                                    
                                                                                                    
                                                                                                    
                                                                                                    
                                                                                                    
                                                                                                    
                                                                                                    
                                                                                                    
                                                                                                    
                                                                                                    
                                                                                                    
                                                                                                    
                                                                                                    
                                                                                                    
                                                                                                    
                                                                                                    
                           
<?xpacket end="w"?></metadata>
<defs>
    <style>
      .cls-1 {
        fill-rule: evenodd;
      }
    </style>
  </defs>
  <path id="Search" class="cls-1" d="M1601.69,413.863l-9.43-9.441a15.368,15.368,0,0,0-2.08-19.01A15.081,15.081,0,0,0,1579.42,381a15.682,15.682,0,0,0-11.01,4.52,15.017,15.017,0,0,0-4.4,10.764A15.425,15.425,0,0,0,1579.4,411.6a15.118,15.118,0,0,0,8.04-2.3l9.41,9.416a0.975,0.975,0,0,0,1.39,0l3.45-3.455A0.973,0.973,0,0,0,1601.69,413.863Zm-22.29-4.24a13.456,13.456,0,0,1-13.42-13.354,13.422,13.422,0,0,1,22.81-9.465,13.612,13.612,0,0,1-.12,18.99A13.01,13.01,0,0,1,1579.4,409.623Zm18.15,6.993-8.5-8.5c0.31-.259,1.69-1.626,2.05-2.068l8.5,8.508Z" transform="translate(-1564 -381)"/>
</svg>
