<svg xmlns="http://www.w3.org/2000/svg" width="37.977" height="38.008" viewBox="0 0 37.977 38.008">
  <path id="Search" d="M1601.69,413.863l-9.43-9.441a15.368,15.368,0,0,0-2.08-19.01A15.081,15.081,0,0,0,1579.42,381a15.682,15.682,0,0,0-11.01,4.52,15.017,15.017,0,0,0-4.4,10.764A15.425,15.425,0,0,0,1579.4,411.6a15.118,15.118,0,0,0,8.04-2.3l9.41,9.416a.975.975,0,0,0,1.39,0l3.45-3.455a.973.973,0,0,0,0-1.4Zm-22.29-4.24a13.333,13.333,0,1,1,9.39-22.819,13.612,13.612,0,0,1-.12,18.99,13.01,13.01,0,0,1-9.27,3.829Zm18.15,6.993-8.5-8.5c.31-.259,1.69-1.626,2.05-2.068l8.5,8.508Z" transform="translate(-1564.009 -381)" fill-rule="evenodd"/>
</svg>
