<svg xmlns="http://www.w3.org/2000/svg" width="38" height="38" viewBox="0 0 38 38">
  <metadata><?xpacket begin="﻿" id="W5M0MpCehiHzreSzNTczkc9d"?>
<x:xmpmeta xmlns:x="adobe:ns:meta/" x:xmptk="Adobe XMP Core 5.6-c140 79.160451, 2017/05/06-01:08:21        ">
   <rdf:RDF xmlns:rdf="http://www.w3.org/1999/02/22-rdf-syntax-ns#">
      <rdf:Description rdf:about=""/>
   </rdf:RDF>
</x:xmpmeta>
                                                                                                    
                                                                                                    
                                                                                                    
                                                                                                    
                                                                                                    
                                                                                                    
                                                                                                    
                                                                                                    
                                                                                                    
                                                                                                    
                                                                                                    
                                                                                                    
                                                                                                    
                                                                                                    
                                                                                                    
                                                                                                    
                                                                                                    
                                                                                                    
                                                                                                    
                                                                                                    
                           
<?xpacket end="w"?></metadata>
<defs>
    <style>
      .cls-1 {
        fill-rule: evenodd;
      }
    </style>
  </defs>
  <path id="Tick" class="cls-1" d="M217,1267a19,19,0,1,0,19,19A19,19,0,0,0,217,1267Zm0,36a17,17,0,1,1,17-17A17.021,17.021,0,0,1,217,1303Zm11.455-23.46a1,1,0,0,0-1.415,0l-12.755,12.79-5.325-5.34a1,1,0,0,0-1.42,1.41l6.04,6.05a0.988,0.988,0,0,0,.7.3,1.008,1.008,0,0,0,.71-0.3l13.465-13.5A1,1,0,0,0,228.455,1279.54Z" transform="translate(-198 -1267)"/>
</svg>
